<svg xmlns="http://www.w3.org/2000/svg" width="840" height="560" viewBox="0 0 840 560">
<rect width="100%" height="100%" fill="white"/>
<line x1="136.06" y1="52.00" x2="136.06" y2="437.00" stroke="#E5E7EB" stroke-width="0.80" opacity="1.000" stroke-linecap="round"/>
<line x1="136.06" y1="437.00" x2="136.06" y2="442.00" stroke="#24292F" stroke-width="1.30" opacity="1.000" stroke-linecap="round"/>
<text x="136.06" y="464.00" font-family="Arial, Helvetica, sans-serif" font-size="17" font-weight="400" fill="#202124" text-anchor="middle">-40</text>
<line x1="254.06" y1="52.00" x2="254.06" y2="437.00" stroke="#E5E7EB" stroke-width="0.80" opacity="1.000" stroke-linecap="round"/>
<line x1="254.06" y1="437.00" x2="254.06" y2="442.00" stroke="#24292F" stroke-width="1.30" opacity="1.000" stroke-linecap="round"/>
<text x="254.06" y="464.00" font-family="Arial, Helvetica, sans-serif" font-size="17" font-weight="400" fill="#202124" text-anchor="middle">-20</text>
<line x1="372.07" y1="52.00" x2="372.07" y2="437.00" stroke="#E5E7EB" stroke-width="0.80" opacity="1.000" stroke-linecap="round"/>
<line x1="372.07" y1="437.00" x2="372.07" y2="442.00" stroke="#24292F" stroke-width="1.30" opacity="1.000" stroke-linecap="round"/>
<text x="372.07" y="464.00" font-family="Arial, Helvetica, sans-serif" font-size="17" font-weight="400" fill="#202124" text-anchor="middle">0</text>
<line x1="490.07" y1="52.00" x2="490.07" y2="437.00" stroke="#E5E7EB" stroke-width="0.80" opacity="1.000" stroke-linecap="round"/>
<line x1="490.07" y1="437.00" x2="490.07" y2="442.00" stroke="#24292F" stroke-width="1.30" opacity="1.000" stroke-linecap="round"/>
<text x="490.07" y="464.00" font-family="Arial, Helvetica, sans-serif" font-size="17" font-weight="400" fill="#202124" text-anchor="middle">20</text>
<line x1="608.07" y1="52.00" x2="608.07" y2="437.00" stroke="#E5E7EB" stroke-width="0.80" opacity="1.000" stroke-linecap="round"/>
<line x1="608.07" y1="437.00" x2="608.07" y2="442.00" stroke="#24292F" stroke-width="1.30" opacity="1.000" stroke-linecap="round"/>
<text x="608.07" y="464.00" font-family="Arial, Helvetica, sans-serif" font-size="17" font-weight="400" fill="#202124" text-anchor="middle">40</text>
<line x1="88.00" y1="399.49" x2="673.00" y2="399.49" stroke="#E5E7EB" stroke-width="0.80" opacity="1.000" stroke-linecap="round"/>
<line x1="83.00" y1="399.49" x2="88.00" y2="399.49" stroke="#24292F" stroke-width="1.30" opacity="1.000" stroke-linecap="round"/>
<text x="77.00" y="403.49" font-family="Arial, Helvetica, sans-serif" font-size="17" font-weight="400" fill="#202124" text-anchor="end">-40</text>
<line x1="88.00" y1="307.02" x2="673.00" y2="307.02" stroke="#E5E7EB" stroke-width="0.80" opacity="1.000" stroke-linecap="round"/>
<line x1="83.00" y1="307.02" x2="88.00" y2="307.02" stroke="#24292F" stroke-width="1.30" opacity="1.000" stroke-linecap="round"/>
<text x="77.00" y="311.02" font-family="Arial, Helvetica, sans-serif" font-size="17" font-weight="400" fill="#202124" text-anchor="end">-20</text>
<line x1="88.00" y1="214.56" x2="673.00" y2="214.56" stroke="#E5E7EB" stroke-width="0.80" opacity="1.000" stroke-linecap="round"/>
<line x1="83.00" y1="214.56" x2="88.00" y2="214.56" stroke="#24292F" stroke-width="1.30" opacity="1.000" stroke-linecap="round"/>
<text x="77.00" y="218.56" font-family="Arial, Helvetica, sans-serif" font-size="17" font-weight="400" fill="#202124" text-anchor="end">0</text>
<line x1="88.00" y1="122.09" x2="673.00" y2="122.09" stroke="#E5E7EB" stroke-width="0.80" opacity="1.000" stroke-linecap="round"/>
<line x1="83.00" y1="122.09" x2="88.00" y2="122.09" stroke="#24292F" stroke-width="1.30" opacity="1.000" stroke-linecap="round"/>
<text x="77.00" y="126.09" font-family="Arial, Helvetica, sans-serif" font-size="17" font-weight="400" fill="#202124" text-anchor="end">20</text>
<line x1="88.00" y1="437.00" x2="673.00" y2="437.00" stroke="#24292F" stroke-width="1.60" opacity="1.000" stroke-linecap="round"/>
<line x1="88.00" y1="52.00" x2="88.00" y2="437.00" stroke="#24292F" stroke-width="1.60" opacity="1.000" stroke-linecap="round"/>
<text x="380.50" y="492.50" font-family="Arial, Helvetica, sans-serif" font-size="21" font-weight="600" fill="#202124" text-anchor="middle">PC1 (37.3% var.)</text>
<text x="24.00" y="244.50" font-family="Arial, Helvetica, sans-serif" font-size="21" font-weight="600" fill="#202124" text-anchor="middle" transform="rotate(-90.00 24.00 244.50)">PC2 (16.4% var.)</text>
<ellipse cx="384.30" cy="143.12" rx="94.93" ry="25.04" fill="#0072B2" stroke="#0072B2" stroke-width="1.1" opacity="0.125" transform="rotate(37.40 384.30 143.12)"/>
<ellipse cx="273.97" cy="125.48" rx="73.70" ry="55.76" fill="#D55E00" stroke="#D55E00" stroke-width="1.1" opacity="0.125" transform="rotate(-5.76 273.97 125.48)"/>
<ellipse cx="288.85" cy="204.19" rx="123.35" ry="41.07" fill="#009E73" stroke="#009E73" stroke-width="1.1" opacity="0.125" transform="rotate(-14.54 288.85 204.19)"/>
<ellipse cx="607.96" cy="191.20" rx="23.72" ry="3.65" fill="#CC79A7" stroke="#CC79A7" stroke-width="1.1" opacity="0.125" transform="rotate(-36.23 607.96 191.20)"/>
<ellipse cx="188.68" cy="209.51" rx="49.29" ry="37.75" fill="#E69F00" stroke="#E69F00" stroke-width="1.1" opacity="0.125" transform="rotate(-60.30 188.68 209.51)"/>
<ellipse cx="271.42" cy="355.27" rx="158.17" ry="20.17" fill="#56B4E9" stroke="#56B4E9" stroke-width="1.1" opacity="0.125" transform="rotate(27.41 271.42 355.27)"/>
<ellipse cx="399.26" cy="250.14" rx="35.55" ry="24.16" fill="#F0E442" stroke="#F0E442" stroke-width="1.1" opacity="0.125" transform="rotate(-24.38 399.26 250.14)"/>
<ellipse cx="550.59" cy="229.11" rx="21.79" ry="6.16" fill="#000000" stroke="#000000" stroke-width="1.1" opacity="0.125" transform="rotate(-14.91 550.59 229.11)"/>
<circle cx="405.86" cy="204.15" r="4.35" fill="#0072B2" stroke="white" stroke-width="0.55" opacity="0.950"/>
<rect x="221.69" y="190.60" width="7.05" height="7.05" fill="#D55E00" stroke="white" opacity="0.950"/>
<polygon points="317.23,203.21 320.99,209.73 313.46,209.73" fill="#009E73" stroke="white" stroke-width="0.55" opacity="0.950"/>
<polygon points="578.54,212.83 578.54,218.98 572.39,218.98 572.39,212.83" fill="#CC79A7" stroke="white" stroke-width="0.55" opacity="0.950"/>
<polygon points="185.66,202.93 189.43,205.11 189.43,209.46 185.66,211.63 181.90,209.46 181.90,205.11" fill="#E69F00" stroke="white" stroke-width="0.55" opacity="0.950"/>
<circle cx="315.32" cy="399.74" r="4.35" fill="#56B4E9" stroke="white" stroke-width="0.55" opacity="0.950"/>
<polygon points="365.42,276.55 366.59,279.28 369.55,279.55 367.32,281.52 367.97,284.42 365.42,282.90 362.86,284.42 363.51,281.52 361.28,279.55 364.24,279.28" fill="#F0E442" stroke="white" stroke-width="0.55" opacity="0.950"/>
<rect x="508.87" y="237.85" width="7.05" height="7.05" fill="#000000" stroke="white" opacity="0.950"/>
<circle cx="454.05" cy="190.49" r="4.35" fill="#0072B2" stroke="white" stroke-width="0.55" opacity="0.950"/>
<rect x="254.50" y="188.33" width="7.05" height="7.05" fill="#D55E00" stroke="white" opacity="0.950"/>
<polygon points="336.82,194.65 340.59,201.17 333.06,201.17" fill="#009E73" stroke="white" stroke-width="0.55" opacity="0.950"/>
<polygon points="611.06,191.86 611.06,198.01 604.91,198.01 604.91,191.86" fill="#CC79A7" stroke="white" stroke-width="0.55" opacity="0.950"/>
<rect x="549.81" y="222.55" width="7.05" height="7.05" fill="#000000" stroke="white" opacity="0.950"/>
<polygon points="203.16,180.64 207.16,182.95 207.16,187.57 203.16,189.88 199.16,187.57 199.16,182.95" fill="#E69F00" stroke="white" stroke-width="0.55" opacity="0.950"/>
<rect x="234.83" y="94.07" width="7.05" height="7.05" fill="#D55E00" stroke="white" opacity="0.950"/>
<circle cx="345.43" cy="394.96" r="4.83" fill="#56B4E9" stroke="white" stroke-width="0.58" opacity="0.950"/>
<polygon points="406.95,256.15 408.26,259.18 411.54,259.49 409.07,261.66 409.79,264.88 406.95,263.20 404.12,264.88 404.84,261.66 402.37,259.49 405.65,259.18" fill="#F0E442" stroke="white" stroke-width="0.58" opacity="0.950"/>
<circle cx="408.98" cy="136.72" r="4.62" fill="#0072B2" stroke="white" stroke-width="0.55" opacity="0.950"/>
<polygon points="191.81,179.30 195.81,186.23 187.81,186.23" fill="#009E73" stroke="white" stroke-width="0.55" opacity="0.950"/>
<polygon points="619.65,183.82 619.65,190.35 613.12,190.35 613.12,183.82" fill="#CC79A7" stroke="white" stroke-width="0.55" opacity="0.950"/>
<rect x="553.43" y="224.19" width="7.48" height="7.48" fill="#000000" stroke="white" opacity="0.950"/>
<polygon points="216.96,181.88 220.96,184.19 220.96,188.81 216.96,191.12 212.96,188.81 212.96,184.19" fill="#E69F00" stroke="white" stroke-width="0.55" opacity="0.950"/>
<rect x="318.32" y="111.43" width="7.82" height="7.82" fill="#D55E00" stroke="white" opacity="0.950"/>
<polygon points="395.74,151.57 399.74,158.50 391.74,158.50" fill="#009E73" stroke="white" stroke-width="0.55" opacity="0.950"/>
<polygon points="618.30,185.52 618.30,192.05 611.76,192.05 611.76,185.52" fill="#CC79A7" stroke="white" stroke-width="0.55" opacity="0.950"/>
<circle cx="356.71" cy="393.11" r="4.62" fill="#56B4E9" stroke="white" stroke-width="0.55" opacity="0.950"/>
<polygon points="413.32,258.75 414.57,261.65 417.72,261.94 415.34,264.03 416.04,267.11 413.32,265.49 410.61,267.11 411.30,264.03 408.93,261.94 412.07,261.65" fill="#F0E442" stroke="white" stroke-width="0.55" opacity="0.950"/>
<rect x="554.56" y="223.98" width="7.48" height="7.48" fill="#000000" stroke="white" opacity="0.950"/>
<circle cx="418.19" cy="151.67" r="4.83" fill="#0072B2" stroke="white" stroke-width="0.58" opacity="0.950"/>
<polygon points="201.70,180.55 205.70,182.86 205.70,187.48 201.70,189.79 197.70,187.48 197.70,182.86" fill="#E69F00" stroke="white" stroke-width="0.55" opacity="0.950"/>
<rect x="322.64" y="115.34" width="7.05" height="7.05" fill="#D55E00" stroke="white" opacity="0.950"/>
<polygon points="251.05,201.57 254.82,208.09 247.29,208.09" fill="#009E73" stroke="white" stroke-width="0.55" opacity="0.950"/>
<polygon points="618.10,185.21 618.10,191.74 611.57,191.74 611.57,185.21" fill="#CC79A7" stroke="white" stroke-width="0.55" opacity="0.950"/>
<circle cx="350.72" cy="392.81" r="4.62" fill="#56B4E9" stroke="white" stroke-width="0.55" opacity="0.950"/>
<polygon points="402.80,258.29 404.05,261.19 407.20,261.48 404.82,263.56 405.52,266.64 402.80,265.03 400.09,266.64 400.78,263.56 398.41,261.48 401.55,261.19" fill="#F0E442" stroke="white" stroke-width="0.55" opacity="0.950"/>
<rect x="552.42" y="227.00" width="7.48" height="7.48" fill="#000000" stroke="white" opacity="0.950"/>
<circle cx="393.77" cy="152.49" r="4.35" fill="#0072B2" stroke="white" stroke-width="0.55" opacity="0.950"/>
<polygon points="255.04,228.58 258.81,235.10 251.27,235.10" fill="#009E73" stroke="white" stroke-width="0.55" opacity="0.950"/>
<rect x="251.71" y="108.21" width="7.48" height="7.48" fill="#D55E00" stroke="white" opacity="0.950"/>
<polygon points="218.51,187.79 222.51,190.10 222.51,194.72 218.51,197.03 214.51,194.72 214.51,190.10" fill="#E69F00" stroke="white" stroke-width="0.55" opacity="0.950"/>
<circle cx="348.69" cy="106.61" r="4.62" fill="#0072B2" stroke="white" stroke-width="0.55" opacity="0.950"/>
<circle cx="206.63" cy="327.98" r="4.62" fill="#56B4E9" stroke="white" stroke-width="0.55" opacity="0.950"/>
<polygon points="405.32,260.04 406.57,262.95 409.71,263.24 407.34,265.32 408.04,268.40 405.32,266.79 402.61,268.40 403.30,265.32 400.93,263.24 404.07,262.95" fill="#F0E442" stroke="white" stroke-width="0.55" opacity="0.950"/>
<polygon points="616.62,183.54 616.62,190.37 609.80,190.37 609.80,183.54" fill="#CC79A7" stroke="white" stroke-width="0.58" opacity="0.950"/>
<polygon points="201.79,237.43 205.56,239.61 205.56,243.96 201.79,246.13 198.02,243.96 198.02,239.61" fill="#E69F00" stroke="white" stroke-width="0.55" opacity="0.950"/>
<rect x="549.65" y="225.75" width="7.82" height="7.82" fill="#000000" stroke="white" opacity="0.950"/>
<rect x="218.22" y="95.21" width="7.82" height="7.82" fill="#D55E00" stroke="white" opacity="0.950"/>
<polygon points="242.60,206.27 247.07,214.00 238.14,214.00" fill="#009E73" stroke="white" stroke-width="0.62" opacity="0.950"/>
<circle cx="171.57" cy="282.04" r="4.35" fill="#56B4E9" stroke="white" stroke-width="0.55" opacity="0.950"/>
<polygon points="367.78,240.05 368.96,242.78 371.92,243.05 369.69,245.01 370.34,247.91 367.78,246.40 365.23,247.91 365.88,245.01 363.65,243.05 366.61,242.78" fill="#F0E442" stroke="white" stroke-width="0.55" opacity="0.950"/>
<circle cx="327.74" cy="89.26" r="4.62" fill="#0072B2" stroke="white" stroke-width="0.55" opacity="0.950"/>
<polygon points="144.61,206.72 148.61,209.03 148.61,213.65 144.61,215.96 140.61,213.65 140.61,209.03" fill="#E69F00" stroke="white" stroke-width="0.55" opacity="0.950"/>
<polygon points="610.55,184.62 610.55,191.15 604.01,191.15 604.01,184.62" fill="#CC79A7" stroke="white" stroke-width="0.55" opacity="0.950"/>
<circle cx="181.45" cy="299.51" r="4.62" fill="#56B4E9" stroke="white" stroke-width="0.55" opacity="0.950"/>
<polygon points="420.33,236.07 421.58,238.97 424.72,239.26 422.35,241.35 423.04,244.43 420.33,242.82 417.61,244.43 418.31,241.35 415.94,239.26 419.08,238.97" fill="#F0E442" stroke="white" stroke-width="0.55" opacity="0.950"/>
<rect x="541.48" y="221.17" width="7.48" height="7.48" fill="#000000" stroke="white" opacity="0.950"/>
<polygon points="176.59,248.33 180.35,250.50 180.35,254.85 176.59,257.03 172.82,254.85 172.82,250.50" fill="#E69F00" stroke="white" stroke-width="0.55" opacity="0.950"/>
<circle cx="326.91" cy="104.10" r="4.62" fill="#0072B2" stroke="white" stroke-width="0.55" opacity="0.950"/>
<polygon points="599.99,193.89 599.99,200.04 593.84,200.04 593.84,193.89" fill="#CC79A7" stroke="white" stroke-width="0.55" opacity="0.950"/>
<polygon points="425.78,224.72 427.02,227.62 430.17,227.92 427.80,230.00 428.49,233.08 425.78,231.47 423.06,233.08 423.75,230.00 421.38,227.92 424.53,227.62" fill="#F0E442" stroke="white" stroke-width="0.55" opacity="0.950"/>
<rect x="545.27" y="217.15" width="7.48" height="7.48" fill="#000000" stroke="white" opacity="0.950"/>
<rect x="229.19" y="96.96" width="7.48" height="7.48" fill="#D55E00" stroke="white" opacity="0.950"/>
<polygon points="184.16,244.72 187.92,246.89 187.92,251.24 184.16,253.42 180.39,251.24 180.39,246.89" fill="#E69F00" stroke="white" stroke-width="0.55" opacity="0.950"/>
<circle cx="181.77" cy="305.67" r="4.83" fill="#56B4E9" stroke="white" stroke-width="0.58" opacity="0.950"/>
<polygon points="613.92,185.27 613.92,191.80 607.38,191.80 607.38,185.27" fill="#CC79A7" stroke="white" stroke-width="0.55" opacity="0.950"/>
<circle cx="314.83" cy="102.62" r="4.35" fill="#0072B2" stroke="white" stroke-width="0.55" opacity="0.950"/>
<polygon points="237.99,204.42 241.99,211.35 233.99,211.35" fill="#009E73" stroke="white" stroke-width="0.55" opacity="0.950"/>
<rect x="549.12" y="224.83" width="7.05" height="7.05" fill="#000000" stroke="white" opacity="0.950"/>
<polygon points="372.78,230.64 374.03,233.54 377.17,233.83 374.80,235.91 375.49,238.99 372.78,237.38 370.06,238.99 370.76,235.91 368.39,233.83 371.53,233.54" fill="#F0E442" stroke="white" stroke-width="0.55" opacity="0.950"/>
<circle cx="205.55" cy="329.32" r="4.35" fill="#56B4E9" stroke="white" stroke-width="0.55" opacity="0.950"/>
<polygon points="177.89,231.27 181.89,233.58 181.89,238.20 177.89,240.51 173.89,238.20 173.89,233.58" fill="#E69F00" stroke="white" stroke-width="0.55" opacity="0.950"/>
<circle cx="396.31" cy="159.49" r="4.35" fill="#0072B2" stroke="white" stroke-width="0.55" opacity="0.950"/>
<rect x="259.12" y="105.18" width="7.05" height="7.05" fill="#D55E00" stroke="white" opacity="0.950"/>
<polygon points="337.98,171.47 341.75,177.99 334.21,177.99" fill="#009E73" stroke="white" stroke-width="0.55" opacity="0.950"/>
<polygon points="614.23,180.98 614.23,187.13 608.08,187.13 608.08,180.98" fill="#CC79A7" stroke="white" stroke-width="0.55" opacity="0.950"/>
<circle cx="208.88" cy="347.72" r="4.35" fill="#56B4E9" stroke="white" stroke-width="0.55" opacity="0.950"/>
<polygon points="406.12,236.74 407.29,239.47 410.25,239.74 408.02,241.70 408.67,244.61 406.12,243.09 403.56,244.61 404.21,241.70 401.98,239.74 404.94,239.47" fill="#F0E442" stroke="white" stroke-width="0.55" opacity="0.950"/>
<rect x="553.11" y="225.50" width="7.05" height="7.05" fill="#000000" stroke="white" opacity="0.950"/>
<circle cx="375.41" cy="150.50" r="4.35" fill="#0072B2" stroke="white" stroke-width="0.55" opacity="0.950"/>
<rect x="272.74" y="102.60" width="7.05" height="7.05" fill="#D55E00" stroke="white" opacity="0.950"/>
<polygon points="303.44,255.04 307.21,261.56 299.68,261.56" fill="#009E73" stroke="white" stroke-width="0.55" opacity="0.950"/>
<polygon points="614.92,183.91 614.92,190.06 608.77,190.06 608.77,183.91" fill="#CC79A7" stroke="white" stroke-width="0.55" opacity="0.950"/>
<polygon points="146.70,176.72 150.47,178.90 150.47,183.25 146.70,185.42 142.93,183.25 142.93,178.90" fill="#E69F00" stroke="white" stroke-width="0.55" opacity="0.950"/>
<circle cx="366.32" cy="399.62" r="4.35" fill="#56B4E9" stroke="white" stroke-width="0.55" opacity="0.950"/>
<polygon points="393.80,238.30 394.97,241.03 397.94,241.30 395.70,243.26 396.36,246.16 393.80,244.65 391.24,246.16 391.90,243.26 389.66,241.30 392.62,241.03" fill="#F0E442" stroke="white" stroke-width="0.55" opacity="0.950"/>
<rect x="552.92" y="228.39" width="7.05" height="7.05" fill="#000000" stroke="white" opacity="0.950"/>
<rect x="339.52" y="123.18" width="7.05" height="7.05" fill="#D55E00" stroke="white" opacity="0.950"/>
<polygon points="192.82,235.18 196.59,241.70 189.05,241.70" fill="#009E73" stroke="white" stroke-width="0.55" opacity="0.950"/>
<polygon points="206.38,181.34 210.15,183.51 210.15,187.86 206.38,190.04 202.61,187.86 202.61,183.51" fill="#E69F00" stroke="white" stroke-width="0.55" opacity="0.950"/>
<circle cx="440.91" cy="169.30" r="4.35" fill="#0072B2" stroke="white" stroke-width="0.55" opacity="0.950"/>
<rect x="321.61" y="131.21" width="7.05" height="7.05" fill="#D55E00" stroke="white" opacity="0.950"/>
<polygon points="403.66,165.29 407.43,171.81 399.90,171.81" fill="#009E73" stroke="white" stroke-width="0.55" opacity="0.950"/>
<polygon points="617.87,184.71 617.87,190.87 611.72,190.87 611.72,184.71" fill="#CC79A7" stroke="white" stroke-width="0.55" opacity="0.950"/>
<circle cx="366.65" cy="390.75" r="4.35" fill="#56B4E9" stroke="white" stroke-width="0.55" opacity="0.950"/>
<polygon points="410.67,231.15 411.85,233.89 414.81,234.16 412.57,236.12 413.23,239.02 410.67,237.51 408.11,239.02 408.77,236.12 406.53,234.16 409.50,233.89" fill="#F0E442" stroke="white" stroke-width="0.55" opacity="0.950"/>
<rect x="552.71" y="227.17" width="7.05" height="7.05" fill="#000000" stroke="white" opacity="0.950"/>
<circle cx="706.00" cy="106.00" r="6.95" fill="#0072B2" stroke="white" stroke-width="0.83" opacity="1.000"/>
<text x="723.00" y="111.50" font-family="Arial, Helvetica, sans-serif" font-size="17" font-weight="400" fill="#202124" text-anchor="start">Bank 1</text>
<rect x="700.37" y="130.87" width="11.26" height="11.26" fill="#D55E00" stroke="white" opacity="1.000"/>
<text x="723.00" y="142.00" font-family="Arial, Helvetica, sans-serif" font-size="17" font-weight="400" fill="#202124" text-anchor="start">Bank 2</text>
<polygon points="706.00,160.05 712.02,170.47 699.98,170.47" fill="#009E73" stroke="white" stroke-width="0.83" opacity="1.000"/>
<text x="723.00" y="172.50" font-family="Arial, Helvetica, sans-serif" font-size="17" font-weight="400" fill="#202124" text-anchor="start">Bank 3</text>
<polygon points="710.91,192.59 710.91,202.41 701.09,202.41 701.09,192.59" fill="#CC79A7" stroke="white" stroke-width="0.83" opacity="1.000"/>
<text x="723.00" y="203.00" font-family="Arial, Helvetica, sans-serif" font-size="17" font-weight="400" fill="#202124" text-anchor="start">Bank 4</text>
<polygon points="706.00,221.05 712.02,224.53 712.02,231.47 706.00,234.95 699.98,231.47 699.98,224.53" fill="#E69F00" stroke="white" stroke-width="0.83" opacity="1.000"/>
<text x="723.00" y="233.50" font-family="Arial, Helvetica, sans-serif" font-size="17" font-weight="400" fill="#202124" text-anchor="start">Bank 5</text>
<circle cx="706.00" cy="258.50" r="6.95" fill="#56B4E9" stroke="white" stroke-width="0.83" opacity="1.000"/>
<text x="723.00" y="264.00" font-family="Arial, Helvetica, sans-serif" font-size="17" font-weight="400" fill="#202124" text-anchor="start">Bank 6</text>
<polygon points="706.00,282.05 707.88,286.41 712.61,286.85 709.04,289.99 710.09,294.62 706.00,292.20 701.91,294.62 702.96,289.99 699.39,286.85 704.12,286.41" fill="#F0E442" stroke="white" stroke-width="0.83" opacity="1.000"/>
<text x="723.00" y="294.50" font-family="Arial, Helvetica, sans-serif" font-size="17" font-weight="400" fill="#202124" text-anchor="start">Bank 7</text>
<rect x="700.37" y="313.87" width="11.26" height="11.26" fill="#000000" stroke="white" opacity="1.000"/>
<text x="723.00" y="325.00" font-family="Arial, Helvetica, sans-serif" font-size="17" font-weight="400" fill="#202124" text-anchor="start">Bank 8</text>
</svg>
